<svg xmlns="http://www.w3.org/2000/svg" viewBox="0 0 64 64">
  <rect width="64" height="64" fill="#1A1E16"/>
  <rect x="4" y="4" width="56" height="56" fill="none" stroke="#E6E1CE" stroke-width="3"/>
  <path d="M32 52c-14 0-22-8-22-18 0-8 6-14 14-14 6 0 9-5 14-5 8 0 14 7 14 15 0 12-9 22-20 22z" fill="#3E7B33"/>
  <path d="M28 46c-9 0-14-5-14-12 0-6 4-10 9-10 4 0 6-3 9-3 5 0 9 5 9 10 0 8-6 15-13 15z" fill="#7FA84B"/>
  <circle cx="24" cy="36" r="2.5" fill="#D6E596"/>
  <circle cx="37" cy="32" r="1.8" fill="#D6E596"/>
  <circle cx="31" cy="42" r="1.4" fill="#A9C56B"/>
</svg>